<mxfile host="app.diagrams.net" modified="2024-06-15T17:19:22.083Z" agent="Mozilla/5.0 (X11; Linux x86_64) AppleWebKit/537.36 (KHTML, like Gecko) Chrome/126.0.0.0 Safari/537.36" version="24.5.4" etag="vK7kfmKhO0dT46nFFhsK" type="github">
  <diagram name="Page-1" id="3zqLT_xC4dW-3_b_Cbz8">
    <mxGraphModel>
      <root>
        <mxCell id="0" />
        <mxCell id="1" parent="0" />
      </root>
    </mxGraphModel>
  </diagram>
</mxfile>
